<svg xmlns="http://www.w3.org/2000/svg" width="149.96" height="149.96" viewBox="0 0 149.96 149.96">
  <g id="Group_2387" data-name="Group 2387" transform="translate(-168.001 -974.336)">
    <rect id="Rectangle_561" data-name="Rectangle 561" width="117" height="117" rx="30" transform="translate(168.001 1014.352) rotate(-20)" fill="#fff5c9"/>
    <g id="farm" transform="translate(208.001 1004.234)">
      <g id="Group_2164" data-name="Group 2164" transform="translate(0 65.257)">
        <g id="Group_2163" data-name="Group 2163">
          <path id="Path_3023" data-name="Path 3023" d="M1.154,480H1.138a1.138,1.138,0,0,0,0,2.276h.016a1.138,1.138,0,0,0,0-2.276Z" transform="translate(0 -480)" fill="#ffac11"/>
        </g>
      </g>
      <g id="Group_2166" data-name="Group 2166" transform="translate(0 12)">
        <g id="Group_2165" data-name="Group 2165">
          <path id="Path_3024" data-name="Path 3024" d="M54.688,50.511l-.05-.016L45.223,47.7a.644.644,0,0,1-.453-.439V44.47c0-.038,0-.075-.006-.111L48.354,42.3l.061-.038a6.806,6.806,0,0,0,2.894-5.183c0-.029,0-.058,0-.087v-1.18a4.02,4.02,0,0,0,2-6.37c.51.162,1.014.33,1.505.51a1.138,1.138,0,0,0,1.317-1.73L50.87,20.84V15.326a1.138,1.138,0,0,0-.732-1.063A37.206,37.206,0,0,0,38.581,12a37.205,37.205,0,0,0-11.557,2.263,1.138,1.138,0,0,0-.732,1.063v5.515l-5.243,7.383a1.138,1.138,0,0,0,1.318,1.728c.481-.175.973-.34,1.472-.5a4.02,4.02,0,0,0,2.011,6.36v1.18q0,.043,0,.087a6.8,6.8,0,0,0,2.874,5.183l.062.038,3.631,2.076c0,.031,0,.062,0,.093v2.284a1.138,1.138,0,0,0-.019.2v.274c0,.18-.187.373-.458.473l-9.424,2.793-.05.016a5.25,5.25,0,0,0-3.575,4.815v9.931H11.607V54.1h2.162a3.987,3.987,0,0,0,3.983-3.983V34.527a1.138,1.138,0,1,0-2.276,0V50.122a1.709,1.709,0,0,1-1.707,1.707H12.6V34.421a1.138,1.138,0,0,0-2.276,0V51.829H7.445V34.421a1.138,1.138,0,0,0-2.276,0V51.829H3.983a1.709,1.709,0,0,1-1.707-1.707V34.527a1.138,1.138,0,0,0-2.276,0V50.122A3.987,3.987,0,0,0,3.983,54.1H6.145V65.257H4.55a1.138,1.138,0,0,0,0,2.276H57.126a1.138,1.138,0,0,0,1.138-1.138V55.326A5.25,5.25,0,0,0,54.688,50.511ZM9.331,65.257h-.91V54.1h.91ZM28.569,16.132a34.308,34.308,0,0,1,10.013-1.856,34.386,34.386,0,0,1,10.013,1.857v3.643a53.414,53.414,0,0,0-10.279-.889,47.794,47.794,0,0,0-9.747.859Zm-.441,6.057a41.416,41.416,0,0,1,10.188-1.026A48.033,48.033,0,0,1,49.047,22.2l3.26,4.569a52.91,52.91,0,0,0-13.713-1.725,52.9,52.9,0,0,0-13.724,1.728Zm1.826,18.156a4.516,4.516,0,0,1-1.827-3.4V34.839A1.138,1.138,0,0,0,26.988,33.7a1.747,1.747,0,0,1,0-3.495,1.138,1.138,0,0,0,1.137-1.082l.039-.788a54.293,54.293,0,0,1,20.873,0v.73a1.138,1.138,0,0,0,1.138,1.138,1.747,1.747,0,0,1,0,3.495,1.138,1.138,0,0,0-1.138,1.138v2.109a4.522,4.522,0,0,1-1.848,3.4l-6.921,3.968-.061.038a2.872,2.872,0,0,1-3.25,0c-.02-.013-.041-.026-.062-.038Zm12.541,6.984v.735l-3.9,3.878-3.906-3.879V45.675l1.043.6a5.15,5.15,0,0,0,5.694,0l1.065-.611v1.21c0,.028,0,.055,0,.084v.274C42.489,47.262,42.492,47.3,42.494,47.329ZM24.234,65.257H21.166V55.326a3.025,3.025,0,0,1,2.024-2.657l1.044-.309v12.9Zm26.406,0H49.309V57.25a1.138,1.138,0,1,0-2.276,0v8.006H30.116V57.25a1.138,1.138,0,1,0-2.276,0v8.006H26.51V51.685l6.106-1.81.05-.016a3.367,3.367,0,0,0,.421-.18L37.8,54.355a1.138,1.138,0,0,0,1.6,0l4.689-4.668a3.385,3.385,0,0,0,.405.172l.05.016,6.093,1.808Zm5.348,0H52.915v-12.9l1.048.311a3.026,3.026,0,0,1,2.024,2.657Z" transform="translate(0 -12)" fill="#ffac11"/>
        </g>
      </g>
      <g id="Group_2168" data-name="Group 2168" transform="translate(41.989 30.816)">
        <g id="Group_2167" data-name="Group 2167">
          <path id="Path_3025" data-name="Path 3025" d="M370.276,177.349a1.29,1.29,0,1,0,1.29,1.29A1.291,1.291,0,0,0,370.276,177.349Z" transform="translate(-368.986 -177.349)" fill="#ffac11"/>
        </g>
      </g>
      <g id="Group_2170" data-name="Group 2170" transform="translate(32.594 30.816)">
        <g id="Group_2169" data-name="Group 2169">
          <path id="Path_3026" data-name="Path 3026" d="M287.714,177.349a1.29,1.29,0,1,0,1.29,1.29A1.291,1.291,0,0,0,287.714,177.349Z" transform="translate(-286.424 -177.349)" fill="#ffac11"/>
        </g>
      </g>
      <g id="Group_2172" data-name="Group 2172" transform="translate(27.84 52.69)">
        <g id="Group_2171" data-name="Group 2171">
          <path id="Path_3027" data-name="Path 3027" d="M245.79,369.568a1.138,1.138,0,0,0-1.138,1.138v.016a1.138,1.138,0,0,0,2.276,0v-.016A1.138,1.138,0,0,0,245.79,369.568Z" transform="translate(-244.652 -369.568)" fill="#ffac11"/>
        </g>
      </g>
      <g id="Group_2174" data-name="Group 2174" transform="translate(47.033 52.69)">
        <g id="Group_2173" data-name="Group 2173">
          <path id="Path_3028" data-name="Path 3028" d="M414.444,369.568a1.138,1.138,0,0,0-1.138,1.138v.016a1.138,1.138,0,0,0,2.276,0v-.016A1.138,1.138,0,0,0,414.444,369.568Z" transform="translate(-413.306 -369.568)" fill="#ffac11"/>
        </g>
      </g>
      <g id="Group_2176" data-name="Group 2176" transform="translate(36.317 37.008)">
        <g id="Group_2175" data-name="Group 2175">
          <path id="Path_3029" data-name="Path 3029" d="M323.41,232.158a1.138,1.138,0,0,0-1.536-.184,1.156,1.156,0,0,1-.468.076,1.141,1.141,0,0,1-.45-.071,1.138,1.138,0,0,0-1.427,1.771,2.823,2.823,0,0,0,1.877.576,2.878,2.878,0,0,0,1.874-.564A1.138,1.138,0,0,0,323.41,232.158Z" transform="translate(-319.141 -231.757)" fill="#ffac11"/>
        </g>
      </g>
    </g>
  </g>
</svg>
