<svg xmlns="http://www.w3.org/2000/svg" width="149.96" height="149.96" viewBox="0 0 149.96 149.96">
  <g id="Group_2392" data-name="Group 2392" transform="translate(-966.155 -982.492)">
    <rect id="Rectangle_566" data-name="Rectangle 566" width="117" height="117" rx="30" transform="translate(1076.099 1132.452) rotate(-160)" fill="#eef9f1"/>
    <g id="Home_delivery" data-name="Home delivery" transform="translate(1010.001 1016)">
      <path id="Path_3041" data-name="Path 3041" d="M60.517,25.875A1,1,0,0,0,62,25V19a1,1,0,0,0-.517-.875L50,11.791V3a1,1,0,0,0-1-1H44a1,1,0,0,0-1,1V7.93L32.475,2.13a1,1,0,0,0-.967,0l-28.991,16A1,1,0,0,0,2,19v6a1,1,0,0,0,1.483.875L8,23.383V54H3a1,1,0,0,0,0,2H16v3a3,3,0,0,0,3,3H45a3,3,0,0,0,3-3V56H61a1,1,0,0,0,0-2H56V23.384ZM45,4h3v6.688L45,9.033ZM4,19.59,31.992,4.142,60,19.59v3.717L32.475,8.125a1,1,0,0,0-.967,0L4,23.306ZM46,59a1,1,0,0,1-1,1H19a1,1,0,0,1-1-1V33a1,1,0,0,1,1-1h8V43a1,1,0,0,0,1.444.9l3.59-1.778L35.549,43.9A1,1,0,0,0,37,43V32h8a1,1,0,0,1,1,1ZM29,32h6v9.375l-2.511-1.268a.994.994,0,0,0-.894,0L29,41.389ZM54,54H48V33a3,3,0,0,0-3-3H19a3,3,0,0,0-3,3V54H10V22.279L31.992,10.142,54,22.281Z" fill="#049d04"/>
      <path id="Path_3042" data-name="Path 3042" d="M27,20a5,5,0,1,0,5-5A5,5,0,0,0,27,20Zm5-3a3,3,0,1,1-3,3A3,3,0,0,1,32,17Z" fill="#049d04"/>
    </g>
  </g>
</svg>
