<svg xmlns="http://www.w3.org/2000/svg" width="149.96" height="149.96" viewBox="0 0 149.96 149.96">
  <g id="Group_2388" data-name="Group 2388" transform="translate(-172.157 -1222.492)">
    <rect id="Rectangle_562" data-name="Rectangle 562" width="117" height="117" rx="30" transform="translate(282.101 1372.452) rotate(-160)" fill="#eef9f1"/>
    <path id="Subtraction_16" data-name="Subtraction 16" d="M-19764.9-1824.645h-28.971a7.174,7.174,0,0,1-3.529-.946,7.175,7.175,0,0,1-2.6-2.564,7.174,7.174,0,0,1-.709-5.659l4.2-2.047-1.105,2.027a4.217,4.217,0,0,0,.07,4.231,4.275,4.275,0,0,0,3.68,2.108h28.955a4.275,4.275,0,0,0,3.68-2.108,4.353,4.353,0,0,0,.113-4.246l-5.375-9.864a8.43,8.43,0,0,1-4.227-1.623l0,0-.02-.013a5.56,5.56,0,0,0-3.529-1.166c-.141,0-.281,0-.416.011l4.146-2.022a12.95,12.95,0,0,1,1.355.813c.279.183.512.334.74.467l-.992-1.819,2.555-1.246,8.242,15.106a7.168,7.168,0,0,1,.871,3.547,7.158,7.158,0,0,1-1,3.513,7.2,7.2,0,0,1-2.6,2.559A7.153,7.153,0,0,1-19764.9-1824.645Zm-29.449-21.173,0,0,5.447-9.987a4.308,4.308,0,0,0,.527-2.053v-14.95h-2.193a1.429,1.429,0,0,1-1.426-1.427,1.426,1.426,0,0,1,1.426-1.422h22.344a1.426,1.426,0,0,1,1.428,1.422,1.429,1.429,0,0,1-1.428,1.427h-2.191v14.95c0,.129.008.26.018.36l-2.664,1.3a7,7,0,0,1-.2-1.659v-14.95h-12.256v14.965a7.233,7.233,0,0,1-.885,3.406l-2.953,5.345a7.277,7.277,0,0,1,1.014.348l-6,2.928Zm19.957-30.513a4.664,4.664,0,0,1-4.658-4.659,4.664,4.664,0,0,1,4.658-4.659,4.668,4.668,0,0,1,4.664,4.659A4.668,4.668,0,0,1-19774.393-1876.332Zm0-6.483a1.816,1.816,0,0,0-1.809,1.81,1.811,1.811,0,0,0,1.809,1.81,1.812,1.812,0,0,0,1.811-1.81A1.812,1.812,0,0,0-19774.393-1882.815Zm-12.027,4.405a4.173,4.173,0,0,1-4.16-4.161,4.166,4.166,0,0,1,4.16-4.161,4.167,4.167,0,0,1,4.162,4.161A4.167,4.167,0,0,1-19786.42-1878.41Zm0-5.474a1.317,1.317,0,0,0-.926.383,1.326,1.326,0,0,0-.383.93,1.311,1.311,0,0,0,1.313,1.308,1.311,1.311,0,0,0,1.313-1.308,1.313,1.313,0,0,0-1.312-1.312Zm7.3-3.222h-.01a3.952,3.952,0,0,1-3.934-3.948,3.935,3.935,0,0,1,2.441-3.649,3.914,3.914,0,0,1,1.5-.3,3.924,3.924,0,0,1,2.8,1.162,3.92,3.92,0,0,1,.846,4.306A3.934,3.934,0,0,1-19779.125-1887.106Zm-.01-5.041a1.1,1.1,0,0,0-1.1,1.094,1.1,1.1,0,0,0,1.1,1.1,1.1,1.1,0,0,0,1.1-1.1A1.1,1.1,0,0,0-19779.135-1892.147Z" transform="translate(20024 3147.672)" fill="#049d04"/>
    <rect id="Rectangle_563" data-name="Rectangle 563" width="3" height="45" rx="1.5" transform="translate(262.259 1289.632) rotate(65)" fill="#049d04"/>
  </g>
</svg>
