<svg xmlns="http://www.w3.org/2000/svg" width="149.96" height="149.96" viewBox="0 0 149.96 149.96">
  <g id="Group_2390" data-name="Group 2390" transform="translate(-762.002 -1421.336)">
    <rect id="Rectangle_568" data-name="Rectangle 568" width="117" height="117" rx="30" transform="translate(762.002 1461.352) rotate(-20)" fill="#eef9f1"/>
    <g id="package" transform="translate(793.523 1463.816)">
      <path id="Path_3038" data-name="Path 3038" d="M72.327,13.713a1.524,1.524,0,0,0-.147-.651,1.422,1.422,0,0,0-.994-.786L46.177.147a1.484,1.484,0,0,0-1.289,0L19.635,12.387a1.479,1.479,0,0,0-.835,1.277V44.442a1.463,1.463,0,0,0,.835,1.326l25.253,12.24c.012,0,.012,0,.025.012a.436.436,0,0,1,.11.049c.012,0,.025.012.049.012l.11.037c.012,0,.025.012.037.012.037.012.086.012.123.025h.037c.049,0,.11.012.16.012a.7.7,0,0,0,.16-.012h.037a.436.436,0,0,0,.123-.025c.012,0,.025-.012.037-.012l.11-.037c.012,0,.025-.012.049-.012a.436.436,0,0,0,.11-.049c.012,0,.012,0,.025-.012L71.517,45.731a1.485,1.485,0,0,0,.835-1.326V13.75C72.327,13.738,72.327,13.726,72.327,13.713ZM45.527,3.106l21.9,10.619-8.066,3.916L37.461,7.022Zm0,21.239-21.9-10.619,10.46-5.07,21.9,10.619Zm-23.78-8.25L44.053,26.911V54.325L21.746,43.509ZM47,54.325V26.911l10.472-5.083V29a1.473,1.473,0,0,0,2.946,0V20.392l8.962-4.346V43.46Z" fill="#049d04"/>
    </g>
  </g>
</svg>
