<svg xmlns="http://www.w3.org/2000/svg" width="149.96" height="149.96" viewBox="0 0 149.96 149.96">
  <g id="Group_2389" data-name="Group 2389" transform="translate(-362.973 -1420.52)">
    <rect id="Rectangle_565" data-name="Rectangle 565" width="117" height="117" rx="30" transform="translate(472.917 1570.48) rotate(-160)" fill="#ffe36b" opacity="0.365"/>
    <g id="dinner" transform="translate(302 1399.123)">
      <g id="Group_2178" data-name="Group 2178" transform="translate(104.766 70.925)">
        <g id="Group_2177" data-name="Group 2177" transform="translate(0 0)">
          <path id="Path_3034" data-name="Path 3034" d="M128.3,118.741a23.53,23.53,0,1,0,23.53,23.53A23.556,23.556,0,0,0,128.3,118.741Zm0,43.954a20.424,20.424,0,1,1,20.424-20.424A20.448,20.448,0,0,1,128.3,162.7Z" transform="translate(-104.766 -118.741)" fill="#ffac11"/>
        </g>
      </g>
      <g id="Group_2180" data-name="Group 2180" transform="translate(112.436 78.595)">
        <g id="Group_2179" data-name="Group 2179" transform="translate(0)">
          <path id="Path_3035" data-name="Path 3035" d="M183.949,176.406a1.553,1.553,0,0,0-2.107-.619c-.025.014-.048.03-.073.045a1.551,1.551,0,0,0-.546,2.062,12.737,12.737,0,1,1-9.19-6.495,1.551,1.551,0,0,0,1.759-1.207c.006-.028.013-.055.018-.084a1.553,1.553,0,0,0-1.291-1.777,15.854,15.854,0,1,0,11.43,8.074Z" transform="translate(-154.16 -168.136)" fill="#ffac11"/>
        </g>
      </g>
      <g id="Group_2182" data-name="Group 2182" transform="translate(135.566 81.025)">
        <g id="Group_2181" data-name="Group 2181" transform="translate(0)">
          <path id="Path_3036" data-name="Path 3036" d="M305.771,184.241a1.486,1.486,0,0,0-.236-.193,1.533,1.533,0,0,0-.269-.143,1.567,1.567,0,0,0-.29-.089,1.536,1.536,0,0,0-.607,0,1.6,1.6,0,0,0-.29.089,1.526,1.526,0,0,0-.7.571,1.532,1.532,0,0,0-.143.269,1.5,1.5,0,0,0-.061.181c-.01.036-.02.072-.027.109a1.576,1.576,0,0,0,0,.607,1.6,1.6,0,0,0,.089.29,1.574,1.574,0,0,0,.335.5,1.685,1.685,0,0,0,.238.194,1.576,1.576,0,0,0,.267.143,1.6,1.6,0,0,0,.29.089,1.546,1.546,0,0,0,.9-.089,1.525,1.525,0,0,0,.232-.121l.037-.022a1.588,1.588,0,0,0,.236-.194,1.487,1.487,0,0,0,.193-.236,1.567,1.567,0,0,0,.143-.267,1.639,1.639,0,0,0,.089-.29,1.548,1.548,0,0,0,.031-.3A1.564,1.564,0,0,0,305.771,184.241Z" transform="translate(-303.121 -183.787)" fill="#ffac11"/>
        </g>
      </g>
      <g id="Group_2184" data-name="Group 2184" transform="translate(151.073 62.135)">
        <g id="Group_2183" data-name="Group 2183" transform="translate(0 0)">
          <path id="Path_3037" data-name="Path 3037" d="M419.875,116.692l-5.036-41.016a21.766,21.766,0,0,0-5.806-12.321l-.136-.143a3.423,3.423,0,0,0-5.882,2.772l6.384,51.994q.031.25.084.492a5.276,5.276,0,0,0,9.735,1.482q.126-.22.231-.453t.187-.475A5.245,5.245,0,0,0,419.875,116.692ZM406.1,65.607a.287.287,0,0,1,.18-.326.352.352,0,0,1,.15-.037.291.291,0,0,1,.215.106l.136.143a18.66,18.66,0,0,1,4.978,10.563l2.684,21.86-4.312.529Zm10.561,52.523a2.172,2.172,0,0,1-4.177-.529l-1.974-16.074,4.312-.529,1.974,16.074A2.161,2.161,0,0,1,416.659,118.129Z" transform="translate(-402.988 -62.135)" fill="#ffac11"/>
        </g>
      </g>
    </g>
  </g>
</svg>
