<svg xmlns="http://www.w3.org/2000/svg" width="149.96" height="149.96" viewBox="0 0 149.96 149.96">
  <g id="Group_2391" data-name="Group 2391" transform="translate(-930.001 -1223.336)">
    <rect id="Rectangle_567" data-name="Rectangle 567" width="117" height="117" rx="30" transform="translate(930.001 1263.353) rotate(-20)" fill="#fff4c9"/>
    <g id="verification" transform="translate(979 1254.881)">
      <path id="Path_3039" data-name="Path 3039" d="M133.513,194.347l-7.681-7.681,2.247-2.247,5.434,5.434,13.505-13.505,2.247,2.247Zm0,0" transform="translate(-112.501 -157.666)" fill="#ffac11"/>
      <path id="Path_3040" data-name="Path 3040" d="M25.047,54.238a11.658,11.658,0,0,1-11.056-7.969A11.655,11.655,0,0,1,2.935,27.119,11.655,11.655,0,0,1,13.991,7.969a11.654,11.654,0,0,1,22.112,0,11.655,11.655,0,0,1,11.057,19.15A11.655,11.655,0,0,1,36.1,46.269,11.659,11.659,0,0,1,25.047,54.238ZM16.373,42.144l.323,1.885a8.476,8.476,0,0,0,16.7,0l.323-1.885,1.793.662a8.476,8.476,0,0,0,8.352-14.466L42.4,27.119,43.868,25.9a8.476,8.476,0,0,0-8.352-14.466l-1.794.662L33.4,10.209a8.476,8.476,0,0,0-16.7,0l-.323,1.885-1.794-.663A8.476,8.476,0,0,0,6.227,25.9L7.7,27.119,6.227,28.341a8.476,8.476,0,0,0,8.352,14.466Zm0,0" transform="translate(0)" fill="#ffac11"/>
    </g>
  </g>
</svg>
